HIERARCHY
ROOT Root
{
  OFFSET 0.0 0.0 0.0
  CHANNELS 6 Xposition Yposition Zposition Zrotation Yrotation Xrotation
  JOINT Hips
  {
    OFFSET 0.0 100.0 0.0
    CHANNELS 6 Xposition Yposition Zposition Zrotation Yrotation Xrotation
    JOINT Spine1
    {
      OFFSET -0.013727 5.003763 -0.053727
      CHANNELS 3 Zrotation Yrotation Xrotation
      JOINT Spine2
      {
        OFFSET -0.0 7.125301 -0.029825
        CHANNELS 3 Zrotation Yrotation Xrotation
        JOINT Chest
        {
          OFFSET -1e-06 7.550063 -0.815971
          CHANNELS 3 Zrotation Yrotation Xrotation
          JOINT Neck1
          {
            OFFSET -0.181677 26.311295 -0.553348
            CHANNELS 3 Zrotation Yrotation Xrotation
            JOINT Neck2
            {
              OFFSET -3e-06 7.709397 2.302585
              CHANNELS 3 Zrotation Yrotation Xrotation
              JOINT Head
              {
                OFFSET -5e-06 6.128916 1.953709
                CHANNELS 3 Zrotation Yrotation Xrotation
                JOINT HeadEnd
                {
                  OFFSET 0.003598 16.065403 -1.835379
                  CHANNELS 3 Zrotation Yrotation Xrotation
                }
                JOINT Jaw
                {
                  OFFSET 0.002637 0.475592 3.094941
                  CHANNELS 3 Zrotation Yrotation Xrotation
                }
                JOINT LeftEye
                {
                  OFFSET 3.206381 5.380205 7.586883
                  CHANNELS 3 Zrotation Yrotation Xrotation
                }
                JOINT RightEye
                {
                  OFFSET -3.22244 5.361869 7.558234
                  CHANNELS 3 Zrotation Yrotation Xrotation
                }
              }
            }
          }
          JOINT LeftShoulder
          {
            OFFSET 1.621652 23.237164 5.113413
            CHANNELS 3 Zrotation Yrotation Xrotation
            JOINT LeftArm
            {
              OFFSET 14.919846 2e-06 -5.502326
              CHANNELS 3 Zrotation Yrotation Xrotation
              JOINT LeftForeArm
              {
                OFFSET 28.739307 0.0 -0.002588
                CHANNELS 3 Zrotation Yrotation Xrotation
                JOINT LeftHand
                {
                  OFFSET 27.093981 -1e-06 0.002609
                  CHANNELS 3 Zrotation Yrotation Xrotation
                  JOINT LeftHandThumb1
                  {
                    OFFSET 2.276482 -1.392045 3.191413
                    CHANNELS 3 Zrotation Yrotation Xrotation
                    JOINT LeftHandThumb2
                    {
                      OFFSET 4.012836 -1.828127 1.641654
                      CHANNELS 3 Zrotation Yrotation Xrotation
                      JOINT LeftHandThumb3
                      {
                        OFFSET 2.798515 0.0 -3e-06
                        CHANNELS 3 Zrotation Yrotation Xrotation
                        JOINT LeftHandThumbEnd
                        {
                          OFFSET 3.180793 -4e-06 4e-06
                          CHANNELS 3 Zrotation Yrotation Xrotation
                        }
                      }
                    }
                  }
                  JOINT LeftHandIndex1
                  {
                    OFFSET 3.247555 -0.531998 2.296169
                    CHANNELS 3 Zrotation Yrotation Xrotation
                    JOINT LeftHandIndex2
                    {
                      OFFSET 6.364578 0.01206 0.1786
                      CHANNELS 3 Zrotation Yrotation Xrotation
                      JOINT LeftHandIndex3
                      {
                        OFFSET 3.662364 0.0 0.0
                        CHANNELS 3 Zrotation Yrotation Xrotation
                        JOINT LeftHandIndex4
                        {
                          OFFSET 2.329242 4e-06 4e-06
                          CHANNELS 3 Zrotation Yrotation Xrotation
                          JOINT LeftHandIndexEnd
                          {
                            OFFSET 2.759615 -0.180537 -0.113024
                            CHANNELS 3 Zrotation Yrotation Xrotation
                          }
                        }
                      }
                    }
                  }
                  JOINT LeftHandMiddle1
                  {
                    OFFSET 3.163495 0.240981 1.000332
                    CHANNELS 3 Zrotation Yrotation Xrotation
                    JOINT LeftHandMiddle2
                    {
                      OFFSET 6.19078 -0.259278 -1.002548
                      CHANNELS 3 Zrotation Yrotation Xrotation
                      JOINT LeftHandMiddle3
                      {
                        OFFSET 4.35652 -4e-06 -1e-06
                        CHANNELS 3 Zrotation Yrotation Xrotation
                        JOINT LeftHandMiddle4
                        {
                          OFFSET 2.996877 -8e-06 0.0
                          CHANNELS 3 Zrotation Yrotation Xrotation
                          JOINT LeftHandMiddleEnd
                          {
                            OFFSET 2.304287 -0.294569 -0.031741
                            CHANNELS 3 Zrotation Yrotation Xrotation
                          }
                        }
                      }
                    }
                  }
                  JOINT LeftHandRing1
                  {
                    OFFSET 2.882643 -0.053652 -0.322543
                    CHANNELS 3 Zrotation Yrotation Xrotation
                    JOINT LeftHandRing2
                    {
                      OFFSET 5.854541 -0.486202 -1.373841
                      CHANNELS 3 Zrotation Yrotation Xrotation
                      JOINT LeftHandRing3
                      {
                        OFFSET 4.350578 0.0 3e-06
                        CHANNELS 3 Zrotation Yrotation Xrotation
                        JOINT LeftHandRing4
                        {
                          OFFSET 2.651321 7e-06 2e-06
                          CHANNELS 3 Zrotation Yrotation Xrotation
                          JOINT LeftHandRingEnd
                          {
                            OFFSET 1.936105 0.077687 -7.1e-05
                            CHANNELS 3 Zrotation Yrotation Xrotation
                          }
                        }
                      }
                    }
                  }
                  JOINT LeftHandPinky1
                  {
                    OFFSET 2.8655 -0.310005 -1.600378
                    CHANNELS 3 Zrotation Yrotation Xrotation
                    JOINT LeftHandPinky2
                    {
                      OFFSET 5.087849 -1.331141 -1.77123
                      CHANNELS 3 Zrotation Yrotation Xrotation
                      JOINT LeftHandPinky3
                      {
                        OFFSET 3.070974 4e-06 0.0
                        CHANNELS 3 Zrotation Yrotation Xrotation
                        JOINT LeftHandPinky4
                        {
                          OFFSET 1.549672 0.0 1e-06
                          CHANNELS 3 Zrotation Yrotation Xrotation
                          JOINT LeftHandPinkyEnd
                          {
                            OFFSET 1.944893 -0.157802 0.057219
                            CHANNELS 3 Zrotation Yrotation Xrotation
                          }
                        }
                      }
                    }
                  }
                }
              }
            }
          }
          JOINT RightShoulder
          {
            OFFSET -1.380118 23.180309 5.214158
            CHANNELS 3 Zrotation Yrotation Xrotation
            JOINT RightArm
            {
              OFFSET -15.037196 1.2e-05 -5.545604
              CHANNELS 3 Zrotation Yrotation Xrotation
              JOINT RightForeArm
              {
                OFFSET -28.736639 2e-06 -0.002597
                CHANNELS 3 Zrotation Yrotation Xrotation
                JOINT RightHand
                {
                  OFFSET -27.133619 -0.0 0.002613
                  CHANNELS 3 Zrotation Yrotation Xrotation
                  JOINT RightHandThumb1
                  {
                    OFFSET -2.274032 -1.383988 3.163127
                    CHANNELS 3 Zrotation Yrotation Xrotation
                    JOINT RightHandThumb2
                    {
                      OFFSET -4.011429 -1.827466 1.640914
                      CHANNELS 3 Zrotation Yrotation Xrotation
                      JOINT RightHandThumb3
                      {
                        OFFSET -2.794935 -4e-06 -3e-06
                        CHANNELS 3 Zrotation Yrotation Xrotation
                        JOINT RightHandThumbEnd
                        {
                          OFFSET -3.183852 4e-06 1e-06
                          CHANNELS 3 Zrotation Yrotation Xrotation
                        }
                      }
                    }
                  }
                  JOINT RightHandIndex1
                  {
                    OFFSET -3.253266 -0.520057 2.282866
                    CHANNELS 3 Zrotation Yrotation Xrotation
                    JOINT RightHandIndex2
                    {
                      OFFSET -6.341917 0.012471 0.178266
                      CHANNELS 3 Zrotation Yrotation Xrotation
                      JOINT RightHandIndex3
                      {
                        OFFSET -3.654871 -8e-06 -0.0
                        CHANNELS 3 Zrotation Yrotation Xrotation
                        JOINT RightHandIndex4
                        {
                          OFFSET -2.327586 0.0 1e-06
                          CHANNELS 3 Zrotation Yrotation Xrotation
                          JOINT RightHandIndexEnd
                          {
                            OFFSET -2.76179 -0.180656 -0.113078
                            CHANNELS 3 Zrotation Yrotation Xrotation
                          }
                        }
                      }
                    }
                  }
                  JOINT RightHandMiddle1
                  {
                    OFFSET -3.168106 0.246593 1.00103
                    CHANNELS 3 Zrotation Yrotation Xrotation
                    JOINT RightHandMiddle2
                    {
                      OFFSET -6.180828 -0.258836 -1.000895
                      CHANNELS 3 Zrotation Yrotation Xrotation
                      JOINT RightHandMiddle3
                      {
                        OFFSET -4.348901 0.0 -0.0
                        CHANNELS 3 Zrotation Yrotation Xrotation
                        JOINT RightHandMiddle4
                        {
                          OFFSET -3.00024 -4e-06 -2e-06
                          CHANNELS 3 Zrotation Yrotation Xrotation
                          JOINT RightHandMiddleEnd
                          {
                            OFFSET -2.30252 -0.29437 -0.031706
                            CHANNELS 3 Zrotation Yrotation Xrotation
                          }
                        }
                      }
                    }
                  }
                  JOINT RightHandRing1
                  {
                    OFFSET -2.88569 -0.067952 -0.308858
                    CHANNELS 3 Zrotation Yrotation Xrotation
                    JOINT RightHandRing2
                    {
                      OFFSET -5.854198 -0.48613 -1.373731
                      CHANNELS 3 Zrotation Yrotation Xrotation
                      JOINT RightHandRing3
                      {
                        OFFSET -4.33881 -4e-06 -0.0
                        CHANNELS 3 Zrotation Yrotation Xrotation
                        JOINT RightHandRing4
                        {
                          OFFSET -2.654903 -4e-06 4e-06
                          CHANNELS 3 Zrotation Yrotation Xrotation
                          JOINT RightHandRingEnd
                          {
                            OFFSET -1.933568 0.077527 -5.2e-05
                            CHANNELS 3 Zrotation Yrotation Xrotation
                          }
                        }
                      }
                    }
                  }
                  JOINT RightHandPinky1
                  {
                    OFFSET -2.866425 -0.342796 -1.584145
                    CHANNELS 3 Zrotation Yrotation Xrotation
                    JOINT RightHandPinky2
                    {
                      OFFSET -5.091371 -1.332055 -1.772385
                      CHANNELS 3 Zrotation Yrotation Xrotation
                      JOINT RightHandPinky3
                      {
                        OFFSET -3.062664 -4e-06 1e-06
                        CHANNELS 3 Zrotation Yrotation Xrotation
                        JOINT RightHandPinky4
                        {
                          OFFSET -1.546529 4e-06 -2e-06
                          CHANNELS 3 Zrotation Yrotation Xrotation
                          JOINT RightHandPinkyEnd
                          {
                            OFFSET -1.945119 -0.157718 0.057211
                            CHANNELS 3 Zrotation Yrotation Xrotation
                          }
                        }
                      }
                    }
                  }
                }
              }
            }
          }
        }
      }
    }
    JOINT LeftLeg
    {
      OFFSET 10.043214 -8.434526 2.595655
      CHANNELS 3 Zrotation Yrotation Xrotation
      JOINT LeftShin
      {
        OFFSET -1e-06 -43.221752 -0.802913
        CHANNELS 3 Zrotation Yrotation Xrotation
        JOINT LeftFoot
        {
          OFFSET 1e-06 -42.155094 -3.481523
          CHANNELS 3 Zrotation Yrotation Xrotation
          JOINT LeftToeBase
          {
            OFFSET 0.0 -5.059472 13.231529
            CHANNELS 3 Zrotation Yrotation Xrotation
            JOINT LeftToeEnd
            {
              OFFSET -0.009607 -1.647619 6.513017
              CHANNELS 3 Zrotation Yrotation Xrotation
            }
          }
        }
      }
    }
    JOINT RightLeg
    {
      OFFSET -10.047278 -8.29526 2.620317
      CHANNELS 3 Zrotation Yrotation Xrotation
      JOINT RightShin
      {
        OFFSET 1e-06 -43.362206 -0.805556
        CHANNELS 3 Zrotation Yrotation Xrotation
        JOINT RightFoot
        {
          OFFSET 2e-06 -42.117393 -3.478398
          CHANNELS 3 Zrotation Yrotation Xrotation
          JOINT RightToeBase
          {
            OFFSET -0.0 -5.079609 13.284196
            CHANNELS 3 Zrotation Yrotation Xrotation
            JOINT RightToeEnd
            {
              OFFSET 0.009532 -1.634378 6.460591
              CHANNELS 3 Zrotation Yrotation Xrotation
            }
          }
        }
      }
    }
  }
}
MOTION
Frames: 5
Frame Time: 0.03333333333333333
0.0 0.0 0.0 0.0 -0.0 0.0 -1.86054 93.748421 -4.064476 -1.938805 -0.050811 2.500192 0.501661 -0.536063 -1.775952 -0.209241 -1.70553 -5.293943 -0.704192 -2.949482 11.777246 -2.631964 3.805532 1.139955 -0.813536 1.186951 -3.560913 -0.602865 1.117355 -7.612827 7.7e-05 -2.2e-05 6e-06 0.014937 -0.215747 -0.004192 0.720039 -3.962615 -10.755614 -0.687727 3.541992 -10.71347 -15.158842 -7.975666 13.418611 -59.382492 4.416731 2.926985 -0.49572 -29.97151 0.267119 5.555277 -8.668756 8.282681 -5.882113 9.861295 0.70259 -10.936883 -0.360576 7.156212 2e-06 8.774833 1e-06 -16.347866 18.168514 6.04442 -1.844035 2.498507 -2.50728 -10.163609 4.678949 4.621112 -20.976046 -5e-06 -2e-06 -21.226309 2.451697 -3.594005 0.0 -6e-06 0.0 -1.362683 2.2408 -0.746323 -21.334938 0.584909 3.008322 -13.821229 -4e-06 -1e-06 -23.887196 -0.249083 -0.839485 -61.679333 2.512465 -0.863927 -0.294025 1.679689 0.833256 -14.218225 0.093215 1.30058 -34.212093 -0.287567 0.967171 -20.033237 0.964536 1.212843 0.0 1e-06 1e-06 -3.440393 0.788234 0.501656 -15.928203 -3.167313 2.999708 -6.338833 -1e-06 0.0 -18.123468 3.648183 -4.905676 -4e-06 -0.0 -2e-06 18.033939 7.927578 14.656586 52.283691 12.117996 32.949066 0.624232 24.378241 0.37979 -9.038167 2.523161 -10.660885 2.243545 -5.255041 -3.180157 14.282904 -0.826596 6.952503 -2e-06 -12.690613 1e-06 16.519798 -17.780571 2.19194 1.665668 -1.955923 -2.8783 4.727802 -4.170591 4.993928 11.020535 3e-06 -3e-06 12.109062 -3.735718 -2.866789 -0.0 0.0 -1e-06 1.291988 -1.928551 -1.498092 14.800139 0.567468 3.865609 14.242584 -1.341737 -6.660663 19.631985 0.143926 -0.648246 49.70752 -0.208729 -6.518995 0.353028 -1.511151 -0.031941 20.222805 3.68431 2.316629 18.787291 5e-06 -1e-06 10.751637 -0.479869 1.397905 1e-06 1e-06 -0.0 3.273809 0.305946 -0.580112 21.486832 11.830384 2.266132 8.162935 2e-06 -2e-06 18.399099 -3.798989 -4.940583 2e-06 -1e-06 -1e-06 -3.625546 -0.960557 21.193045 0.053304 0.598795 10.677479 7.142795 -0.459717 -3.205221 2.134128 -1.844664 -21.538019 -0.0 0.0 2e-06 2.035908 3.889956 -34.787216 -0.006188 0.097899 12.252186 1.562201 -2.904635 7.748899 -1.276206 1.194368 -6.525679 0.0 -0.0 0.0 
0.0 0.0 0.0 0.0 -0.0 0.0 -2.364575 94.147629 0.816894 -2.847725 -0.016382 2.930688 1.164681 -0.503475 -2.021206 -0.08275 -1.770167 -5.389655 -0.373802 -3.099534 11.426188 -3.218077 4.020708 1.102512 -0.781957 1.296454 -3.644512 -0.534424 1.295573 -7.224634 7.7e-05 -2.3e-05 6e-06 0.018389 -0.187563 -0.041377 0.747005 -3.941333 -10.772232 -0.706704 3.573759 -10.73135 -14.898668 -7.646017 13.705874 -60.232769 5.02455 2.758726 -0.51106 -29.801205 0.162345 4.768227 -8.918659 8.381355 -5.88211 9.861289 0.702591 -10.936875 -0.360574 7.156206 0.0 8.774828 0.0 -16.563555 18.06592 5.788127 -1.844034 2.498505 -2.507279 -10.163604 4.678946 4.62111 -20.97603 -3e-06 1e-06 -21.226292 2.451698 -3.594 0.0 -6e-06 1e-06 -1.362682 2.240798 -0.746322 -21.334925 0.58491 3.008325 -13.82122 -2e-06 1e-06 -23.887184 -0.249079 -0.839483 -61.365086 2.359855 -0.817584 -0.294024 1.679687 0.833257 -14.218215 0.093217 1.300583 -34.212067 -0.287563 0.967168 -20.033222 0.964539 1.212843 0.0 1e-06 0.0 -3.44039 0.788233 0.501656 -15.928192 -3.16731 2.999708 -6.338829 -0.0 0.0 -18.123457 3.648185 -4.905672 -4e-06 -1e-06 -3e-06 17.601765 7.947705 14.730347 52.509041 12.14199 33.43301 0.662771 25.136768 0.307997 -8.899428 2.618361 -11.608143 2.243543 -5.25504 -3.18016 14.282896 -0.826598 6.952505 0.0 -12.69061 -1e-06 16.482517 -17.78653 2.238612 1.665668 -1.955923 -2.8783 4.727802 -4.170591 4.993925 11.020534 1e-06 -3e-06 12.109059 -3.73572 -2.866787 -1e-06 0.0 -1e-06 1.291987 -1.92855 -1.498089 14.800136 0.567466 3.86561 14.24258 -1.341739 -6.660664 19.631975 0.143924 -0.648248 49.856987 -0.220438 -6.464423 0.353029 -1.511151 -0.031938 20.222801 3.684309 2.31663 18.787283 2e-06 -3e-06 10.751634 -0.479871 1.397903 1e-06 1e-06 -0.0 3.273809 0.305946 -0.580109 21.486822 11.830378 2.266133 8.16293 1e-06 -2e-06 18.399094 -3.798989 -4.940583 3e-06 -0.0 -1e-06 -1.006616 0.965413 19.084913 0.006768 0.316866 17.75408 5.357526 -2.559466 2.767802 2.264661 -1.642971 -28.598995 0.0 0.0 1e-06 3.634888 4.964192 -34.662354 0.022848 0.075766 16.309084 0.368333 -3.399366 8.193089 -1.341075 1.164518 -5.729043 -0.0 -0.0 -1e-06 
0.0 0.0 0.0 0.0 -0.0 0.0 -2.81721 94.724686 6.031763 -3.581913 -0.126774 2.732879 1.734462 -0.354685 -1.836462 0.048604 -1.803313 -5.35986 -0.030254 -3.196557 11.082169 -3.81667 4.242615 1.359495 -0.736122 1.344666 -3.687594 -0.47961 1.528616 -7.043848 7.7e-05 -2.2e-05 6e-06 0.029109 -0.10205 -0.050887 0.78074 -3.855436 -10.817719 -0.719514 3.656214 -10.77885 -14.619071 -7.265487 13.830656 -61.228294 5.62509 2.308542 -0.483053 -29.706596 -0.025434 4.11888 -8.933191 8.038598 -5.882107 9.861289 0.70259 -10.936872 -0.360574 7.156204 -0.0 8.774826 0.0 -16.726372 17.939686 5.611422 -1.844033 2.498505 -2.507278 -10.1636 4.678947 4.621109 -20.976027 -2e-06 1e-06 -21.22629 2.4517 -3.594002 1e-06 -5e-06 -1e-06 -1.362681 2.240798 -0.746323 -21.334915 0.584912 3.008321 -13.821215 -1e-06 -0.0 -23.887175 -0.249077 -0.839486 -61.059933 2.334298 -0.802539 -0.294025 1.679687 0.833256 -14.218209 0.093217 1.300579 -34.212048 -0.287561 0.967167 -20.033215 0.964537 1.212842 0.0 1e-06 0.0 -3.440389 0.788234 0.501654 -15.928185 -3.167308 2.999707 -6.338827 -0.0 -1e-06 -18.123449 3.648184 -4.905674 -4e-06 -1e-06 -2e-06 16.87149 8.152152 14.894292 52.957691 12.222574 33.953869 0.524812 25.827875 0.206214 -8.807512 2.489348 -12.068246 2.243543 -5.255039 -3.180158 14.282902 -0.826596 6.952511 -3e-06 -12.69061 1e-06 16.483973 -17.790245 2.263338 1.665667 -1.955922 -2.8783 4.727803 -4.170589 4.993928 11.020535 3e-06 0.0 12.109059 -3.735717 -2.866787 -1e-06 0.0 -1e-06 1.291987 -1.92855 -1.498088 14.800144 0.567468 3.865614 14.242585 -1.341736 -6.660666 19.631985 0.143926 -0.648246 49.785564 -0.282993 -6.427325 0.353029 -1.511152 -0.031941 20.222805 3.684312 2.316633 18.787289 5e-06 1e-06 10.751637 -0.47987 1.397909 1e-06 0.0 -1e-06 3.273808 0.305948 -0.580112 21.486832 11.830381 2.266135 8.162932 1e-06 -1e-06 18.399097 -3.798988 -4.940578 4e-06 -0.0 0.0 2.014178 3.279791 15.063945 -0.166749 0.070809 28.407314 1.381191 -5.143703 11.754991 2.294449 -1.409668 -31.586603 -0.0 -0.0 3e-06 5.121841 5.803534 -33.248959 0.006849 0.043032 20.301102 -0.700137 -4.384225 7.590096 -1.385986 1.120756 -4.432403 0.0 -0.0 -1e-06 
0.0 0.0 0.0 0.0 -0.0 0.0 -3.253756 95.500038 11.139998 -4.332647 -0.279598 1.956541 2.260605 -0.143665 -1.263802 0.141666 -1.731668 -5.247288 0.458467 -3.167818 10.956978 -4.26057 4.374234 1.893357 -0.649533 1.250733 -3.730757 -0.377896 1.52294 -6.902061 7.7e-05 -2.2e-05 6e-06 0.034703 -0.018842 -0.071986 0.788861 -3.745898 -10.767551 -0.717954 3.709347 -10.739564 -14.393017 -7.043685 13.734851 -62.139984 5.910522 1.880915 -0.432141 -29.666456 -0.009854 3.890734 -8.442928 6.388556 -5.88211 9.86129 0.70259 -10.93688 -0.360576 7.15621 2e-06 8.77483 -0.0 -16.694765 18.044348 5.640678 -1.844035 2.498506 -2.507279 -10.163606 4.678946 4.62111 -20.97604 -8e-06 2e-06 -21.226301 2.451693 -3.594 -0.0 -5e-06 0.0 -1.362683 2.240798 -0.746323 -21.33493 0.584906 3.008324 -13.821225 -6e-06 3e-06 -23.887192 -0.249084 -0.839483 -60.807858 2.368911 -0.859473 -0.294024 1.679687 0.833256 -14.21822 0.093213 1.300581 -34.212078 -0.28757 0.967173 -20.033228 0.964534 1.212847 1e-06 0.0 2e-06 -3.440392 0.788234 0.501655 -15.928201 -3.167314 2.999707 -6.338831 -2e-06 -0.0 -18.123461 3.64818 -4.905674 -4e-06 0.0 -0.0 16.264355 8.551528 15.002162 53.154015 12.396775 33.925076 0.494364 26.444084 0.18883 -8.567878 2.428504 -12.120066 2.243542 -5.255038 -3.180159 14.2829 -0.826592 6.952507 -6e-06 -12.690611 4e-06 16.416435 -17.834797 2.326561 1.665666 -1.955921 -2.878301 4.7278 -4.170588 4.993927 11.020535 6e-06 -0.0 12.109059 -3.735715 -2.866784 -0.0 0.0 -1e-06 1.291987 -1.92855 -1.498091 14.80014 0.567471 3.86561 14.242584 -1.341732 -6.660663 19.631985 0.143932 -0.648246 49.765198 -0.34845 -6.43126 0.353029 -1.511152 -0.031939 20.222805 3.684315 2.316631 18.787287 9e-06 -1e-06 10.751635 -0.479867 1.397909 1e-06 1e-06 -1e-06 3.27381 0.305948 -0.580112 21.486832 11.830386 2.266131 8.162933 4e-06 -2e-06 18.399096 -3.798982 -4.940578 3e-06 0.0 0.0 4.908335 4.817197 9.502625 -0.143016 -0.078475 40.810833 -5.564545 -5.544058 20.712503 2.030924 -1.47653 -21.087475 0.0 -0.0 1e-06 6.663862 5.860476 -29.763346 0.005031 -0.068364 22.036392 -1.804826 -4.401306 5.9649 -1.399387 1.146807 -2.828994 -0.0 -0.0 -1e-06 
0.0 0.0 0.0 0.0 -0.0 0.0 -3.640584 96.306671 16.15786 -5.043215 -0.012267 1.043964 2.727391 -0.080184 -0.659653 0.259623 -1.500437 -5.042813 0.818583 -3.268095 10.913132 -4.340998 4.266248 2.584761 -0.47731 1.387658 -3.72199 -0.405918 1.657515 -7.099427 7.7e-05 -2.2e-05 6e-06 0.029451 0.01272 -0.059022 0.785579 -3.699844 -10.726425 -0.726568 3.723644 -10.68844 -14.046145 -6.931554 13.62705 -63.018623 5.821208 1.195606 -0.46523 -29.83205 0.072366 3.939773 -8.209288 5.558189 -5.882109 9.86129 0.70259 -10.936879 -0.360576 7.156208 2e-06 8.774831 -2e-06 -16.624004 18.056175 5.731289 -1.844033 2.498505 -2.507277 -10.163608 4.678947 4.621111 -20.97604 -6e-06 3e-06 -21.226299 2.451696 -3.594001 -0.0 -6e-06 -0.0 -1.362682 2.240798 -0.746323 -21.334929 0.584907 3.008322 -13.821225 -5e-06 3e-06 -23.887188 -0.249082 -0.839481 -60.840805 2.511117 -0.902186 -0.294024 1.679688 0.833257 -14.218217 0.093213 1.300579 -34.212074 -0.287569 0.967172 -20.033228 0.964534 1.212844 1e-06 1e-06 -0.0 -3.440391 0.788233 0.501656 -15.9282 -3.167314 2.999705 -6.338831 -2e-06 0.0 -18.123459 3.648181 -4.905674 -4e-06 -0.0 -3e-06 15.99086 8.653815 15.032516 53.038586 12.844171 33.900188 0.440146 26.806404 0.162217 -8.702784 2.547466 -12.558745 2.243543 -5.25504 -3.180161 14.282902 -0.826593 6.952505 -5e-06 -12.690612 1e-06 16.339621 -17.774225 2.370634 1.665668 -1.955922 -2.878299 4.727802 -4.170589 4.993925 11.020538 5e-06 -2e-06 12.109064 -3.735717 -2.866786 0.0 -0.0 -1e-06 1.291988 -1.92855 -1.498089 14.800144 0.567472 3.865606 14.242586 -1.341733 -6.660664 19.631985 0.143931 -0.648248 49.569118 -0.356281 -6.43928 0.353029 -1.511152 -0.031938 20.222811 3.684316 2.316629 18.787289 1e-05 -0.0 10.751637 -0.479866 1.397906 1e-06 1e-06 -1e-06 3.27381 0.305947 -0.580112 21.486834 11.830386 2.266132 8.162935 3e-06 -1e-06 18.399097 -3.798984 -4.94058 2e-06 -1e-06 1e-06 6.954729 5.162432 3.392123 -0.04342 -0.220241 52.188221 -9.171689 -3.396914 23.766678 1.876341 -1.727704 -8.764504 -0.0 0.0 3e-06 8.205012 5.182324 -25.559015 -0.071434 -0.074857 22.726728 -2.574104 -4.517606 2.01894 -1.414866 1.109797 -1.905516 0.0 0.0 -1e-06 
